HIERARCHY
ROOT pelvis
{
	OFFSET 0.003123 -0.351407 0.012037
	CHANNELS 6 Xposition Yposition Zposition Zrotation Yrotation Xrotation 
	JOINT left_hip
	{
		OFFSET 0.058189 -0.092763 -0.026001
		CHANNELS 3 Zrotation Yrotation Xrotation
		JOINT left_knee
		{
			OFFSET 0.054695 -0.378753 -0.009396
			CHANNELS 3 Zrotation Yrotation Xrotation
			JOINT left_ankle
			{
				OFFSET -0.043453 -0.403059 -0.031876
				CHANNELS 3 Zrotation Yrotation Xrotation
				JOINT left_foot
				{
					OFFSET 0.047257 -0.057997 0.118216
					CHANNELS 3 Zrotation Yrotation Xrotation
					End Site
					{
						OFFSET 0.000000 0.000000 0.000000
					}
				}
			}
		}
	}
	JOINT right_hip
	{
		OFFSET -0.063267 -0.103908 -0.021250
		CHANNELS 3 Zrotation Yrotation Xrotation
		JOINT right_knee
		{
			OFFSET -0.044210 -0.362380 -0.016824
			CHANNELS 3 Zrotation Yrotation Xrotation
			JOINT right_ankle
			{
				OFFSET 0.015417 -0.410728 -0.020192
				CHANNELS 3 Zrotation Yrotation Xrotation
				JOINT right_foot
				{
					OFFSET -0.038812 -0.058328 0.119049
					CHANNELS 3 Zrotation Yrotation Xrotation
					End Site
					{
						OFFSET 0.000000 0.000000 0.000000
					}
				}
			}
		}
	}
	JOINT spine_1
	{
		OFFSET -0.002763 0.109891 -0.027618
		CHANNELS 3 Zrotation Yrotation Xrotation
		JOINT spine_2
		{
			OFFSET 0.009448 0.131853 -0.005940
			CHANNELS 3 Zrotation Yrotation Xrotation
			JOINT spine_3
			{
				OFFSET -0.011330 0.052235 0.028447
				CHANNELS 3 Zrotation Yrotation Xrotation
				JOINT neck
				{
					OFFSET -0.012164 0.165167 -0.031615
					CHANNELS 3 Zrotation Yrotation Xrotation
					JOINT head
					{
						OFFSET 0.024783 0.160452 0.020737
						CHANNELS 3 Zrotation Yrotation Xrotation
						End Site
						{
							OFFSET 0.000000 0.000000 0.000000
						}
					}
				}
				JOINT left_collar
				{
					OFFSET 0.046364 0.084944 -0.007220
					CHANNELS 3 Zrotation Yrotation Xrotation
					JOINT left_shoulder
					{
						OFFSET 0.119239 0.057728 -0.015461
						CHANNELS 3 Zrotation Yrotation Xrotation
						JOINT left_elbow
						{
							OFFSET 0.254123 -0.072151 -0.042459
							CHANNELS 3 Zrotation Yrotation Xrotation
							JOINT left_wrist
							{
								OFFSET 0.251987 0.023221 -0.002472
								CHANNELS 3 Zrotation Yrotation Xrotation
								JOINT left_index_1
								{
									OFFSET 0.101902 -0.008688 0.019351
									CHANNELS 3 Zrotation Yrotation Xrotation
									JOINT left_index_2
									{
										OFFSET 0.030149 -0.011154 0.001151
										CHANNELS 3 Zrotation Yrotation Xrotation
										JOINT left_index_3
										{
											OFFSET 0.006504 -0.021577 -0.002433
											CHANNELS 3 Zrotation Yrotation Xrotation
											End Site
											{
												OFFSET 0.000000 0.000000 0.000000
											}
										}
									}
								}
								JOINT left_middle_1
								{
									OFFSET 0.109398 -0.006328 -0.003981
									CHANNELS 3 Zrotation Yrotation Xrotation
									JOINT left_middle_2
									{
										OFFSET 0.026472 -0.015218 -0.004641
										CHANNELS 3 Zrotation Yrotation Xrotation
										JOINT left_middle_3
										{
											OFFSET 0.005022 -0.023347 -0.001911
											CHANNELS 3 Zrotation Yrotation Xrotation
											End Site
											{
												OFFSET 0.000000 0.000000 0.000000
											}
										}
									}
								}
								JOINT left_pinky_1
								{
									OFFSET 0.084047 -0.014539 -0.043750
									CHANNELS 3 Zrotation Yrotation Xrotation
									JOINT left_pinky_2
									{
										OFFSET 0.012124 -0.014448 -0.005375
										CHANNELS 3 Zrotation Yrotation Xrotation
										JOINT left_pinky_3
										{
											OFFSET 0.003798 -0.018853 0.000167
											CHANNELS 3 Zrotation Yrotation Xrotation
											End Site
											{
												OFFSET 0.000000 0.000000 0.000000
											}
										}
									}
								}
								JOINT left_ring_1
								{
									OFFSET 0.097444 -0.009268 -0.027345
									CHANNELS 3 Zrotation Yrotation Xrotation
									JOINT left_ring_2
									{
										OFFSET 0.023561 -0.016057 -0.001895
										CHANNELS 3 Zrotation Yrotation Xrotation
										JOINT left_ring_3
										{
											OFFSET 0.004257 -0.023548 0.000814
											CHANNELS 3 Zrotation Yrotation Xrotation
											End Site
											{
												OFFSET 0.000000 0.000000 0.000000
											}
										}
									}
								}
								JOINT left_thumb_1
								{
									OFFSET 0.040636 -0.017977 0.025611
									CHANNELS 3 Zrotation Yrotation Xrotation
									JOINT left_thumb_2
									{
										OFFSET 0.021637 -0.017639 0.011623
										CHANNELS 3 Zrotation Yrotation Xrotation
										JOINT left_thumb_3
										{
											OFFSET 0.024002 -0.008356 0.006548
											CHANNELS 3 Zrotation Yrotation Xrotation
											End Site
											{
												OFFSET 0.000000 0.000000 0.000000
											}
										}
									}
								}
							}
						}
					}
				}
				JOINT right_collar
				{
					OFFSET -0.047695 0.084339 -0.013400
					CHANNELS 3 Zrotation Yrotation Xrotation
					JOINT right_shoulder
					{
						OFFSET -0.102578 0.053524 -0.012669
						CHANNELS 3 Zrotation Yrotation Xrotation
						JOINT right_elbow
						{
							OFFSET -0.271150 -0.036492 -0.026467
							CHANNELS 3 Zrotation Yrotation Xrotation
							JOINT right_wrist
							{
								OFFSET -0.249267 -0.004533 -0.015325
								CHANNELS 3 Zrotation Yrotation Xrotation
								JOINT right_index_1
								{
									OFFSET -0.099881 -0.011783 0.019600
									CHANNELS 3 Zrotation Yrotation Xrotation
									JOINT right_index_2
									{
										OFFSET -0.030148 -0.011154 0.001151
										CHANNELS 3 Zrotation Yrotation Xrotation
										JOINT right_index_3
										{
											OFFSET -0.006505 -0.021577 -0.002432
											CHANNELS 3 Zrotation Yrotation Xrotation
											End Site
											{
												OFFSET 0.000000 0.000000 0.000000
											}
										}
									}
								}
								JOINT right_middle_1
								{
									OFFSET -0.107376 -0.009422 -0.003734
									CHANNELS 3 Zrotation Yrotation Xrotation
									JOINT right_middle_2
									{
										OFFSET -0.026472 -0.015218 -0.004641
										CHANNELS 3 Zrotation Yrotation Xrotation
										JOINT right_middle_3
										{
											OFFSET -0.005022 -0.023347 -0.001911
											CHANNELS 3 Zrotation Yrotation Xrotation
											End Site
											{
												OFFSET 0.000000 0.000000 0.000000
											}
										}
									}
								}
								JOINT right_pinky_1
								{
									OFFSET -0.082027 -0.017634 -0.043503
									CHANNELS 3 Zrotation Yrotation Xrotation
									JOINT right_pinky_2
									{
										OFFSET -0.012123 -0.014448 -0.005374
										CHANNELS 3 Zrotation Yrotation Xrotation
										JOINT right_pinky_3
										{
											OFFSET -0.003798 -0.018852 0.000167
											CHANNELS 3 Zrotation Yrotation Xrotation
											End Site
											{
												OFFSET 0.000000 0.000000 0.000000
											}
										}
									}
								}
								JOINT right_ring_1
								{
									OFFSET -0.095423 -0.012362 -0.027099
									CHANNELS 3 Zrotation Yrotation Xrotation
									JOINT right_ring_2
									{
										OFFSET -0.023561 -0.016057 -0.001895
										CHANNELS 3 Zrotation Yrotation Xrotation
										JOINT right_ring_3
										{
											OFFSET -0.004257 -0.023548 0.000816
											CHANNELS 3 Zrotation Yrotation Xrotation
											End Site
											{
												OFFSET 0.000000 0.000000 0.000000
											}
										}
									}
								}
								JOINT right_thumb_1
								{
									OFFSET -0.038613 -0.021074 0.025861
									CHANNELS 3 Zrotation Yrotation Xrotation
									JOINT right_thumb_2
									{
										OFFSET -0.021636 -0.017639 0.011623
										CHANNELS 3 Zrotation Yrotation Xrotation
										JOINT right_thumb_3
										{
											OFFSET -0.024004 -0.008353 0.006547
											CHANNELS 3 Zrotation Yrotation Xrotation
											End Site
											{
												OFFSET 0.000000 0.000000 0.000000
											}
										}
									}
								}
							}
						}
					}
				}
			}
		}
	}
}
MOTION
Frames: 4
Frame Time: 0.050000
-0.347656 1.126770 -0.238312 14.912557 27.159330 -46.608993 7.945229 0.887388 9.875213 -3.831450 -18.526921 73.431452 9.176625 -14.091027 -30.798826 0.000000 0.000000 0.000000 -23.537240 0.547139 54.324608 -0.357162 0.096811 2.323224 3.875680 -10.745706 41.798109 0.000000 0.000000 0.000000 13.476843 -22.184949 92.940779 -21.326045 -10.952360 -105.478721 -31.037008 -4.213324 95.813237 2.805094 3.297232 -15.304708 0.000000 0.000000 0.000000 5.263223 -16.936197 2.575762 -27.825353 -49.046862 -7.066486 11.808150 -33.077331 0.741248 -41.052469 26.680646 10.865245 123.403129 3.541154 155.356208 17.973099 -15.300771 39.570936 0.000000 0.000000 0.000000 169.314297 35.130096 -82.866768 16.666430 -0.506958 -19.883162 0.000000 0.000000 0.000000 -106.262576 -15.953492 -42.287437 27.336854 -0.526634 -5.911207 0.000000 0.000000 0.000000 -153.096651 -11.951304 -12.136213 43.719190 12.048920 -41.032904 0.000000 0.000000 0.000000 -130.350794 4.423328 21.948635 168.805756 7.187084 47.413694 0.000000 0.000000 0.000000 23.681356 -14.770512 -19.616458 1.821428 15.009284 -2.677464 -22.730772 17.248983 -3.167899 48.353408 -12.309905 18.004872 -125.571345 -20.881962 -168.357525 -48.155532 -6.758777 -9.116489 0.000000 0.000000 0.000000 -129.761778 -43.292012 -149.473932 -23.315173 -0.892737 11.108470 0.000000 0.000000 0.000000 141.852364 -27.302129 -57.614704 -12.417874 10.078821 -22.382940 0.000000 0.000000 0.000000 -175.263909 -38.193137 -69.727901 -8.424069 16.993901 -31.344279 0.000000 0.000000 0.000000 142.557067 11.130316 21.138214 -160.028756 11.198293 130.710045 0.000000 0.000000 0.000000 
-0.355194 1.122902 -0.251511 14.360616 25.432176 -47.643050 10.474855 0.351315 7.637828 -10.072828 -11.970362 72.414936 12.076171 -8.672251 -35.279018 0.000000 0.000000 0.000000 -20.943063 -0.359794 55.479248 -2.774036 0.279927 1.533173 4.476304 -9.593786 40.105217 0.000000 0.000000 0.000000 6.548723 -18.970952 100.900057 0.611191 -4.496817 -97.218514 -32.324406 1.497317 66.932428 1.610587 0.259002 -3.026198 0.000000 0.000000 0.000000 3.739832 -13.563468 4.391763 -26.738493 -36.455430 -8.546788 5.516159 -41.407755 3.163306 -44.225485 27.881766 12.765917 123.203550 10.022300 175.568109 26.933375 -4.323998 15.280753 0.000000 0.000000 0.000000 168.621490 37.873114 -87.934951 20.679246 -1.895248 -18.988673 0.000000 0.000000 0.000000 -105.138438 -8.036071 -46.000402 27.941100 0.343413 1.326582 0.000000 0.000000 0.000000 -149.904362 -5.762015 -18.772896 55.550605 6.521262 -23.186343 0.000000 0.000000 0.000000 -128.755674 6.989670 16.733870 173.801481 6.066630 46.674368 0.000000 0.000000 0.000000 17.424802 -10.310571 -9.100861 -2.633021 14.570000 -1.996777 -26.838283 12.834868 -2.172656 41.170575 -15.166872 20.560471 -121.648820 -13.909719 176.947882 -54.851994 1.069522 3.440640 0.000000 0.000000 0.000000 -117.814851 -36.610976 -168.975439 7.561845 14.597748 63.105045 0.000000 0.000000 0.000000 128.718197 -2.607761 -59.769516 -10.805048 12.456312 -19.895498 0.000000 0.000000 0.000000 -156.056767 -36.728117 -88.128487 28.380072 35.321809 -29.619969 0.000000 0.000000 0.000000 156.093486 2.223729 21.789192 176.639442 13.397050 79.394771 0.000000 0.000000 0.000000 
-0.360847 1.122902 -0.256790 14.219142 22.287286 -48.024261 11.263960 0.625438 10.101614 -8.214150 -10.393078 65.263208 13.369968 -7.163635 -37.294981 0.000000 0.000000 0.000000 -19.875472 0.522143 53.351484 -3.126421 0.380302 3.038662 4.057146 -11.029451 42.359130 0.000000 0.000000 0.000000 8.435015 -17.137182 98.249658 -0.987170 -6.412579 -106.154819 -29.381926 7.930840 81.672057 2.185295 1.954769 -10.460394 0.000000 0.000000 0.000000 6.501887 -14.190786 3.550780 -27.228934 -37.178225 -10.224670 9.619439 -29.130864 1.025620 -40.061189 29.773376 19.927182 119.706317 5.191200 157.887243 21.796641 -4.892351 13.316210 0.000000 0.000000 0.000000 146.100545 44.258063 -122.340245 -0.119407 -4.694442 -13.044457 0.000000 0.000000 0.000000 -114.985891 7.951131 -54.688327 30.043805 -3.533598 -14.894820 0.000000 0.000000 0.000000 -160.886140 9.167886 -33.908405 58.188148 3.464952 -66.934659 0.000000 0.000000 0.000000 -125.140952 -9.843067 12.893503 165.364782 3.087745 30.122086 0.000000 0.000000 0.000000 16.461500 -14.561041 -11.084050 -5.586558 20.149954 -2.756779 -29.089523 9.249583 -1.305457 28.688881 -4.337940 11.427577 -125.145563 -12.068854 167.162508 -13.996800 2.608517 4.116280 0.000000 0.000000 0.000000 -132.440201 -45.398092 -147.893129 3.322194 17.563989 -37.183224 0.000000 0.000000 0.000000 133.109388 -29.922252 -48.736995 -15.064610 15.872471 -46.803371 0.000000 0.000000 0.000000 173.441484 -29.174509 -50.077735 -8.055406 49.655518 -86.015499 0.000000 0.000000 0.000000 146.410972 40.428287 44.210398 -157.275871 8.873869 69.723026 0.000000 0.000000 0.000000 
-0.366501 1.122902 -0.251511 11.815852 16.041763 -50.451450 15.484397 0.216781 18.290736 -0.101891 -10.091178 50.475695 14.083849 -13.408376 -40.332838 0.000000 0.000000 0.000000 -17.915217 0.385817 53.390414 -2.730381 0.385870 3.825142 5.199409 -9.882408 40.094396 0.000000 0.000000 0.000000 10.462227 -18.367571 96.807338 -0.368723 -7.959736 -97.945995 -28.496638 10.338294 74.907423 4.398955 1.487970 -13.050556 0.000000 0.000000 0.000000 6.192644 -13.774860 3.941208 -29.762596 -31.031697 -9.946831 11.559368 -16.397213 0.452050 -22.040957 19.249004 11.038037 121.399476 -8.758671 116.219167 -106.909600 34.985056 2.138000 0.000000 0.000000 0.000000 131.690200 45.077784 -140.687682 -69.247663 -40.734676 -34.312616 0.000000 0.000000 0.000000 -118.706781 30.787602 -38.826094 31.717822 -8.358062 -66.868019 0.000000 0.000000 0.000000 -158.803886 30.132663 -42.429490 23.223237 -26.914079 -123.202391 0.000000 0.000000 0.000000 -89.978178 -43.442761 10.066403 133.650158 12.752636 36.045462 0.000000 0.000000 0.000000 18.955157 -13.462004 -9.757257 -11.965170 24.100491 -3.498510 -33.014380 7.043829 -0.907586 5.211784 -5.890017 -3.780279 -135.443375 -23.348954 178.647406 84.332813 23.512882 -22.091826 0.000000 0.000000 0.000000 -122.524851 -62.685210 -177.871750 86.581383 26.453821 -24.260706 0.000000 0.000000 0.000000 101.660679 -44.695605 -21.610296 -16.591945 25.091808 -124.315547 0.000000 0.000000 0.000000 149.998196 -79.526084 -67.370789 98.794384 29.937800 -13.367419 0.000000 0.000000 0.000000 122.911539 11.092845 46.704999 -149.804382 -23.309103 50.585261 0.000000 0.000000 0.000000 
